# xmcd CD database file generated by MAGIX_Freedb v0.9beta0
# 
# Track frame offsets:
#      150
#      11912
#      25007
#      37097
#      48682
#      61567
#      76950
#      89830
#      107062
#      122617
#      135607
#      146822
#      159560
#      171587
#      183637
#      195367
# 
# Disc length: 2786 seconds
# 
# Revision: 0 
# Processed by: cddbd v1.4PL0 Copyright (c) Steve Scherf et al.
# Submitted via: MAGIX_Freedb v0.9beta0
# 
DISCID=e20ae010
DTITLE=Solomon Burke - The Best Of
DYEAR=1900
DGENRE=
TTITLE0=If You Need Me
TTITLE1=Just Out Of Reach
TTITLE2=Got To Get You Out Off My Mind
TTITLE3=Can't Nobody Love You
TTITLE4=The Price
TTITLE5=He'll Have To Go
TTITLE6=Hard Ain't It Hard
TTITLE7=Beautiful Brown Eyes
TTITLE8=Goodbye Baby
TTITLE9=You're Good For Me
TTITLE10=Words
TTITLE11=Tonight's The Night
TTITLE12=Down In The Valley
TTITLE13=Cry To Me
TTITLE14=Won't You Give Him
TTITLE15=Somebody To Love
EXTD=
EXTT0=
EXTT1=
EXTT2=
EXTT3=
EXTT4=
EXTT5=
EXTT6=
EXTT7=
EXTT8=
EXTT9=
EXTT10=
EXTT11=
EXTT12=
EXTT13=
EXTT14=
EXTT15=
PLAYORDER=
